<?xml version="1.0" encoding="UTF-8" standalone="no"?>
<!DOCTYPE svg PUBLIC "-//W3C//DTD SVG 1.1//EN" "http://www.w3.org/Graphics/SVG/1.1/DTD/svg11.dtd">
<svg width="100%" height="100%" viewBox="0 0 85 23" version="1.1" xmlns="http://www.w3.org/2000/svg" xmlns:xlink="http://www.w3.org/1999/xlink" xml:space="preserve" xmlns:serif="http://www.serif.com/" style="fill-rule:evenodd;clip-rule:evenodd;stroke-linejoin:round;stroke-miterlimit:2;">
    <g transform="matrix(1,0,0,1,12.2191,8.2926)">
        <g transform="matrix(20,0,0,20,73.6305,8.26579)">
        </g>
        <text x="22.478px" y="8.266px" style="font-family:'ArialMT', 'Arial', sans-serif;font-size:20px;fill:white;">arupa</text>
    </g>
    <g transform="matrix(0.0364384,0,0,0.0372105,-3.35236,-7.55177)">
        <path d="M293.675,602.434C232.664,594.188 182.595,582.642 149.171,569.115C128.65,560.808 113.755,551.379 104.903,541.925C95.941,532.351 92.001,522.122 92.001,512C92.001,501.878 95.941,491.649 104.903,482.075C113.755,472.621 128.65,463.192 149.171,454.887C210.955,429.879 329.624,411.646 469.134,408.51C569.999,312.079 666.804,241.061 728.174,215.056C748.558,206.418 765.757,202.553 778.701,202.979C791.806,203.413 801.828,207.859 808.985,215.016C816.142,222.173 820.589,232.193 821.021,245.301C821.448,258.243 817.582,275.443 808.945,295.828C794.876,329.026 767.636,372.596 730.326,421.566C791.337,429.813 841.407,441.358 874.83,454.887C895.351,463.192 910.247,472.621 919.096,482.075C928.058,491.649 932,501.878 932,512C932,522.122 928.058,532.351 919.096,541.925C910.247,551.379 895.351,560.808 874.83,569.115C813.047,594.121 694.377,612.356 554.867,615.49C454.002,711.921 357.197,782.941 295.827,808.946C275.443,817.582 258.244,821.449 245.3,821.021C232.193,820.589 222.171,816.143 215.014,808.986C207.859,801.829 203.412,791.807 202.98,778.701C202.553,765.757 206.419,748.557 215.056,728.174C229.123,694.975 256.365,651.406 293.675,602.434ZM427.139,449.922C312.592,455.12 216.807,470.662 164.179,491.964C152.309,496.768 142.908,501.695 136.587,507.07C135.298,508.165 134.173,509.257 133.253,510.381C132.749,510.998 132,511.354 132,512C132,512.648 132.749,513.003 133.253,513.621C134.173,514.745 135.298,515.837 136.587,516.932C142.908,522.305 152.309,527.232 164.179,532.036C199.757,546.437 255.06,558.207 322.551,565.926C352.93,528.827 388.185,489.533 427.139,449.922ZM528.111,408.099C583.664,408.563 636.378,411.421 684.092,416.169C726.356,362.989 757.139,315.562 772.114,280.221C777.112,268.431 780.275,258.301 780.945,250.03C781.08,248.345 781.103,246.777 780.959,245.331C780.879,244.539 781.159,243.757 780.702,243.299C780.244,242.842 779.462,243.121 778.669,243.042C777.224,242.897 775.657,242.921 773.969,243.058C765.701,243.727 755.57,246.89 743.779,251.887C691.504,274.037 612.783,330.777 528.111,408.099ZM596.862,574.078C711.409,568.882 807.194,553.338 859.822,532.036C871.69,527.232 881.09,522.305 887.412,516.932C888.7,515.837 889.828,514.745 890.745,513.621C891.25,513.003 892.001,512.648 892.001,512C892.001,511.354 891.25,510.998 890.745,510.381C889.828,509.257 888.7,508.165 887.412,507.07C881.09,501.695 871.69,496.768 859.822,491.964C824.242,477.564 768.941,465.795 701.451,458.076C671.069,495.173 635.816,534.467 596.862,574.078ZM495.89,615.903C440.337,615.437 387.623,612.581 339.906,607.832C297.643,661.013 266.86,708.438 251.885,743.78C246.89,755.57 243.727,765.701 243.057,773.97C242.921,775.657 242.896,777.225 243.04,778.669C243.122,779.463 242.842,780.243 243.299,780.701C243.757,781.159 244.539,780.88 245.333,780.96C246.775,781.105 248.344,781.081 250.029,780.944C258.3,780.273 268.431,777.111 280.222,772.115C332.497,749.963 411.218,693.224 495.89,615.903ZM370.612,570.565C414.48,574.064 462.163,575.969 511.999,575.969C520.879,575.969 529.689,575.91 538.422,575.791C544.683,569.7 550.955,563.513 557.232,557.234C592.474,521.993 624.842,486.93 653.386,453.437C609.519,449.936 561.838,448.031 511.999,448.031C503.122,448.031 494.31,448.092 485.577,448.211C479.318,454.302 473.046,460.489 466.767,466.768C431.527,502.009 399.157,537.072 370.612,570.565Z" style="fill:white;"/>
    </g>
</svg>
