<?xml version="1.0" encoding="UTF-8" standalone="no"?>
<!DOCTYPE svg PUBLIC "-//W3C//DTD SVG 1.1//EN" "http://www.w3.org/Graphics/SVG/1.1/DTD/svg11.dtd">
<svg width="100%" height="100%" viewBox="0 0 1024 1024" version="1.1" xmlns="http://www.w3.org/2000/svg" xmlns:xlink="http://www.w3.org/1999/xlink" xml:space="preserve" xmlns:serif="http://www.serif.com/" style="fill-rule:evenodd;clip-rule:evenodd;stroke-linejoin:round;stroke-miterlimit:2;">
    <g transform="matrix(2.33435,0,0,1.60791,-298.648,-60.2438)">
        <path d="M566.603,196.68L566.603,515.106C566.603,602.978 517.463,674.319 456.936,674.319L237.603,674.319C177.076,674.319 127.936,602.978 127.936,515.106L127.936,196.68C127.936,108.808 177.076,37.467 237.603,37.467L456.936,37.467C517.463,37.467 566.603,108.808 566.603,196.68ZM253.742,412.136C237.759,442.593 226.089,469.69 220.063,490.337C216.363,503.014 214.707,513.711 214.89,521.761C215.075,529.912 216.98,536.145 220.045,540.596C223.111,545.047 227.404,547.812 233.019,548.081C238.564,548.347 245.932,545.942 254.664,540.571C280.954,524.398 322.424,480.229 365.633,420.256C425.397,418.307 476.233,406.966 502.7,391.414C511.491,386.248 517.872,380.384 521.663,374.504C525.502,368.55 527.191,362.188 527.191,355.893C527.191,349.598 525.502,343.236 521.663,337.282C517.872,331.402 511.491,325.538 502.7,320.373C488.382,311.959 466.933,304.779 440.797,299.65C456.78,269.194 468.449,242.097 474.476,221.45C478.176,208.772 479.832,198.075 479.649,190.026C479.464,181.874 477.559,175.642 474.493,171.191C471.427,166.74 467.134,163.975 461.52,163.705C455.975,163.44 448.607,165.844 439.875,171.216C413.585,187.389 372.115,231.557 328.906,291.53C269.142,293.48 218.306,304.82 191.839,320.373C183.048,325.538 176.667,331.402 172.875,337.282C169.036,343.236 167.348,349.598 167.348,355.893C167.348,362.188 169.036,368.55 172.875,374.504C176.667,380.384 183.048,386.248 191.839,391.414C206.157,399.827 227.606,407.008 253.742,412.136ZM310.916,317.285C294.229,341.92 279.126,366.358 266.112,389.431C237.2,384.63 213.509,377.31 198.268,368.354C193.183,365.366 189.156,362.302 186.448,358.96C185.896,358.279 185.414,357.6 185.02,356.901C184.804,356.517 184.483,356.296 184.483,355.893C184.483,355.491 184.804,355.27 185.02,354.886C185.414,354.187 185.896,353.508 186.448,352.827C189.156,349.484 193.183,346.42 198.268,343.432C220.813,330.184 261.846,320.518 310.916,317.285ZM354.171,291.274C390.443,243.186 424.166,207.898 446.56,194.122C451.611,191.014 455.951,189.047 459.493,188.631C460.216,188.546 460.887,188.531 461.506,188.621C461.846,188.67 462.181,188.497 462.377,188.781C462.573,189.066 462.453,189.552 462.487,190.045C462.549,190.944 462.539,191.919 462.481,192.967C462.194,198.111 460.839,204.411 458.698,211.744C452.283,233.723 439.096,263.219 420.991,296.293C400.551,293.34 377.969,291.563 354.171,291.274ZM383.623,394.501C400.31,369.866 415.412,345.428 428.427,322.356C457.339,327.157 481.029,334.476 496.271,343.432C501.355,346.42 505.382,349.484 508.09,352.827C508.642,353.508 509.125,354.187 509.518,354.886C509.734,355.27 510.056,355.491 510.056,355.893C510.056,356.296 509.734,356.517 509.518,356.901C509.125,357.6 508.642,358.279 508.09,358.96C505.382,362.302 501.355,365.366 496.271,368.354C473.726,381.602 432.693,391.269 383.623,394.501ZM340.368,420.513C304.096,468.601 270.373,503.888 247.979,517.665C242.928,520.772 238.588,522.739 235.045,523.156C234.323,523.241 233.651,523.256 233.033,523.166C232.693,523.116 232.358,523.29 232.162,523.005C231.966,522.72 232.086,522.235 232.051,521.741C231.989,520.843 232,519.868 232.058,518.819C232.345,513.676 233.7,507.375 235.84,500.043C242.255,478.063 255.442,448.568 273.547,415.493C293.988,418.447 316.57,420.223 340.368,420.513ZM286.701,392.316C298.929,371.486 312.796,349.679 327.892,327.762C330.582,323.857 333.269,320.009 335.95,316.221C339.691,316.147 343.466,316.109 347.269,316.109C368.619,316.109 389.045,317.294 407.837,319.471C395.609,340.301 381.743,362.108 366.646,384.025C363.957,387.93 361.27,391.778 358.588,395.566C354.847,395.64 351.073,395.677 347.269,395.677C325.92,395.677 305.493,394.492 286.701,392.316Z" style="fill:white;"/>
        <g transform="matrix(0.428385,0,0,0.621925,127.936,37.4671)">
            <path d="M293.675,602.434C232.664,594.188 182.595,582.642 149.171,569.115C128.65,560.808 113.755,551.379 104.903,541.925C95.941,532.351 92.001,522.122 92.001,512C92.001,501.878 95.941,491.649 104.903,482.075C113.755,472.621 128.65,463.192 149.171,454.887C210.955,429.879 329.624,411.646 469.134,408.51C569.999,312.079 666.804,241.061 728.174,215.056C748.558,206.418 765.757,202.553 778.701,202.979C791.806,203.413 801.828,207.859 808.985,215.016C816.142,222.173 820.589,232.193 821.021,245.301C821.448,258.243 817.582,275.443 808.945,295.828C794.876,329.026 767.636,372.596 730.326,421.566C791.337,429.813 841.407,441.358 874.83,454.887C895.351,463.192 910.247,472.621 919.096,482.075C928.058,491.649 932,501.878 932,512C932,522.122 928.058,532.351 919.096,541.925C910.247,551.379 895.351,560.808 874.83,569.115C813.047,594.121 694.377,612.356 554.867,615.49C454.002,711.921 357.197,782.941 295.827,808.946C275.443,817.582 258.244,821.449 245.3,821.021C232.193,820.589 222.171,816.143 215.014,808.986C207.859,801.829 203.412,791.807 202.98,778.701C202.553,765.757 206.419,748.557 215.056,728.174C229.123,694.975 256.365,651.406 293.675,602.434ZM427.139,449.922C312.592,455.12 216.807,470.662 164.179,491.964C152.309,496.768 142.908,501.695 136.587,507.07C135.298,508.165 134.173,509.257 133.253,510.381C132.749,510.998 132,511.354 132,512C132,512.648 132.749,513.003 133.253,513.621C134.173,514.745 135.298,515.837 136.587,516.932C142.908,522.305 152.309,527.232 164.179,532.036C199.757,546.437 255.06,558.207 322.551,565.926C352.93,528.827 388.185,489.533 427.139,449.922ZM528.111,408.099C583.664,408.563 636.378,411.421 684.092,416.169C726.356,362.989 757.139,315.562 772.114,280.221C777.112,268.431 780.275,258.301 780.945,250.03C781.08,248.345 781.103,246.777 780.959,245.331C780.879,244.539 781.159,243.757 780.702,243.299C780.244,242.842 779.462,243.121 778.669,243.042C777.224,242.897 775.657,242.921 773.969,243.058C765.701,243.727 755.57,246.89 743.779,251.887C691.504,274.037 612.783,330.777 528.111,408.099ZM596.862,574.078C711.409,568.882 807.194,553.338 859.822,532.036C871.69,527.232 881.09,522.305 887.412,516.932C888.7,515.837 889.828,514.745 890.745,513.621C891.25,513.003 892.001,512.648 892.001,512C892.001,511.354 891.25,510.998 890.745,510.381C889.828,509.257 888.7,508.165 887.412,507.07C881.09,501.695 871.69,496.768 859.822,491.964C824.242,477.564 768.941,465.795 701.451,458.076C671.069,495.173 635.816,534.467 596.862,574.078ZM495.89,615.903C440.337,615.437 387.623,612.581 339.906,607.832C297.643,661.013 266.86,708.438 251.885,743.78C246.89,755.57 243.727,765.701 243.057,773.97C242.921,775.657 242.896,777.225 243.04,778.669C243.122,779.463 242.842,780.243 243.299,780.701C243.757,781.159 244.539,780.88 245.333,780.96C246.775,781.105 248.344,781.081 250.029,780.944C258.3,780.273 268.431,777.111 280.222,772.115C332.497,749.963 411.218,693.224 495.89,615.903ZM370.612,570.565C414.48,574.064 462.163,575.969 511.999,575.969C520.879,575.969 529.689,575.91 538.422,575.791C544.683,569.7 550.955,563.513 557.232,557.234C592.474,521.993 624.842,486.93 653.386,453.437C609.519,449.936 561.838,448.031 511.999,448.031C503.122,448.031 494.31,448.092 485.577,448.211C479.318,454.302 473.046,460.489 466.767,466.768C431.527,502.009 399.157,537.072 370.612,570.565Z"/>
        </g>
    </g>
</svg>
